<mxfile host="app.diagrams.net" modified="2023-07-02T03:51:04.937Z" agent="Mozilla/5.0 (Macintosh; Intel Mac OS X 10_15_7) AppleWebKit/537.36 (KHTML, like Gecko) Chrome/114.0.0.0 Safari/537.36" etag="2Jp4GfphNDHw6PFFk9e5" version="21.5.0" type="device">
  <diagram name="第 1 页" id="CKGrihbguGt8TJq82k7z">
    <mxGraphModel dx="1078" dy="461" grid="1" gridSize="10" guides="1" tooltips="1" connect="1" arrows="1" fold="1" page="1" pageScale="1" pageWidth="827" pageHeight="1169" math="0" shadow="0">
      <root>
        <mxCell id="0" />
        <mxCell id="1" parent="0" />
        <mxCell id="JSUWj8P5MIAXhEMUyiJb-11" value="" style="group" vertex="1" connectable="0" parent="1">
          <mxGeometry x="10" y="470" width="250" height="280" as="geometry" />
        </mxCell>
        <mxCell id="JSUWj8P5MIAXhEMUyiJb-1" value="" style="rounded=0;whiteSpace=wrap;html=1;" vertex="1" parent="JSUWj8P5MIAXhEMUyiJb-11">
          <mxGeometry width="250" height="280" as="geometry" />
        </mxCell>
        <mxCell id="JSUWj8P5MIAXhEMUyiJb-2" value="TOP 5" style="rounded=0;whiteSpace=wrap;html=1;" vertex="1" parent="JSUWj8P5MIAXhEMUyiJb-11">
          <mxGeometry x="41.666666666666664" y="112" width="166.66666666666666" height="49" as="geometry" />
        </mxCell>
        <mxCell id="JSUWj8P5MIAXhEMUyiJb-3" value="News" style="rounded=0;whiteSpace=wrap;html=1;" vertex="1" parent="JSUWj8P5MIAXhEMUyiJb-11">
          <mxGeometry x="41.666666666666664" y="189" width="166.66666666666666" height="49" as="geometry" />
        </mxCell>
        <mxCell id="JSUWj8P5MIAXhEMUyiJb-4" value="" style="rounded=0;whiteSpace=wrap;html=1;" vertex="1" parent="JSUWj8P5MIAXhEMUyiJb-11">
          <mxGeometry width="250" height="28" as="geometry" />
        </mxCell>
        <mxCell id="JSUWj8P5MIAXhEMUyiJb-5" value="Book System" style="text;html=1;strokeColor=none;fillColor=none;align=center;verticalAlign=middle;whiteSpace=wrap;rounded=0;" vertex="1" parent="JSUWj8P5MIAXhEMUyiJb-11">
          <mxGeometry x="97.22222222222221" y="3.5" width="55.55555555555556" height="21" as="geometry" />
        </mxCell>
        <mxCell id="JSUWj8P5MIAXhEMUyiJb-6" value="Login/ Sign In" style="text;html=1;strokeColor=none;fillColor=none;align=center;verticalAlign=middle;whiteSpace=wrap;rounded=0;" vertex="1" parent="JSUWj8P5MIAXhEMUyiJb-11">
          <mxGeometry x="194.44444444444443" y="3.5" width="55.55555555555556" height="21" as="geometry" />
        </mxCell>
        <mxCell id="JSUWj8P5MIAXhEMUyiJb-7" value="Weather" style="ellipse;whiteSpace=wrap;html=1;" vertex="1" parent="JSUWj8P5MIAXhEMUyiJb-11">
          <mxGeometry width="41.666666666666664" height="28" as="geometry" />
        </mxCell>
        <mxCell id="JSUWj8P5MIAXhEMUyiJb-8" value="Search bar" style="rounded=0;whiteSpace=wrap;html=1;" vertex="1" parent="JSUWj8P5MIAXhEMUyiJb-11">
          <mxGeometry x="41.666666666666664" y="56" width="166.66666666666666" height="21" as="geometry" />
        </mxCell>
        <mxCell id="JSUWj8P5MIAXhEMUyiJb-37" value="" style="group" vertex="1" connectable="0" parent="1">
          <mxGeometry x="280" y="470" width="250" height="280" as="geometry" />
        </mxCell>
        <mxCell id="JSUWj8P5MIAXhEMUyiJb-12" value="" style="rounded=0;whiteSpace=wrap;html=1;" vertex="1" parent="JSUWj8P5MIAXhEMUyiJb-37">
          <mxGeometry width="250" height="280" as="geometry" />
        </mxCell>
        <mxCell id="JSUWj8P5MIAXhEMUyiJb-13" value="" style="rounded=0;whiteSpace=wrap;html=1;" vertex="1" parent="JSUWj8P5MIAXhEMUyiJb-37">
          <mxGeometry width="250" height="28" as="geometry" />
        </mxCell>
        <mxCell id="JSUWj8P5MIAXhEMUyiJb-14" value="Book System" style="text;html=1;strokeColor=none;fillColor=none;align=center;verticalAlign=middle;whiteSpace=wrap;rounded=0;" vertex="1" parent="JSUWj8P5MIAXhEMUyiJb-37">
          <mxGeometry x="97.22222222222223" y="3.5" width="55.55555555555556" height="21" as="geometry" />
        </mxCell>
        <mxCell id="JSUWj8P5MIAXhEMUyiJb-15" value="Weather" style="ellipse;whiteSpace=wrap;html=1;" vertex="1" parent="JSUWj8P5MIAXhEMUyiJb-37">
          <mxGeometry width="41.666666666666664" height="28" as="geometry" />
        </mxCell>
        <mxCell id="JSUWj8P5MIAXhEMUyiJb-34" value="Log In" style="rounded=0;whiteSpace=wrap;html=1;" vertex="1" parent="JSUWj8P5MIAXhEMUyiJb-37">
          <mxGeometry x="41.666666666666686" y="50" width="166.66666666666666" height="49" as="geometry" />
        </mxCell>
        <mxCell id="JSUWj8P5MIAXhEMUyiJb-35" value="Email&lt;br&gt;&lt;br&gt;Password&lt;br&gt;&lt;br&gt;Log/in" style="rounded=0;whiteSpace=wrap;html=1;" vertex="1" parent="JSUWj8P5MIAXhEMUyiJb-37">
          <mxGeometry x="41.670000000000016" y="110" width="166.67" height="130" as="geometry" />
        </mxCell>
      </root>
    </mxGraphModel>
  </diagram>
</mxfile>
